HIERARCHY
ROOT Hips
{
	OFFSET 0.00000 0.00000 0.00000
	CHANNELS 6 Xposition Yposition Zposition Zrotation Yrotation Xrotation 
	JOINT LHipJoint
	{
		OFFSET 0 0 0
		CHANNELS 3 Zrotation Yrotation Xrotation
		JOINT LeftUpLeg
		{
			OFFSET 1.40252 -1.71424 0.59123
			CHANNELS 3 Zrotation Yrotation Xrotation
			JOINT LeftLeg
			{
				OFFSET 2.50071 -6.87065 0.00000
				CHANNELS 3 Zrotation Yrotation Xrotation
				JOINT LeftFoot
				{
					OFFSET 2.50834 -6.89162 0.00000
					CHANNELS 3 Zrotation Yrotation Xrotation
					JOINT LeftToeBase
					{
						OFFSET 0.21528 -0.59149 1.64448
						CHANNELS 3 Zrotation Yrotation Xrotation
						End Site
						{
							OFFSET 0.00000 -0.00000 0.87921
						}
					}
				}
			}
		}
	}
	JOINT RHipJoint
	{
		OFFSET 0 0 0
		CHANNELS 3 Zrotation Yrotation Xrotation
		JOINT RightUpLeg
		{
			OFFSET -1.53651 -1.71424 0.59123
			CHANNELS 3 Zrotation Yrotation Xrotation
			JOINT RightLeg
			{
				OFFSET -2.45783 -6.75285 0.00000
				CHANNELS 3 Zrotation Yrotation Xrotation
				JOINT RightFoot
				{
					OFFSET -2.51921 -6.92147 0.00000
					CHANNELS 3 Zrotation Yrotation Xrotation
					JOINT RightToeBase
					{
						OFFSET -0.21777 -0.59831 1.59676
						CHANNELS 3 Zrotation Yrotation Xrotation
						End Site
						{
							OFFSET -0.00000 -0.00000 0.85779
						}
					}
				}
			}
		}
	}
	JOINT LowerBack
	{
		OFFSET 0 0 0
		CHANNELS 3 Zrotation Yrotation Xrotation
		JOINT Spine
		{
			OFFSET 0.02212 2.07622 0.03776
			CHANNELS 3 Zrotation Yrotation Xrotation
			JOINT Spine1
			{
				OFFSET -0.00949 2.08009 -0.00123
				CHANNELS 3 Zrotation Yrotation Xrotation
				JOINT Neck
				{
					OFFSET 0 0 0
					CHANNELS 3 Zrotation Yrotation Xrotation
					JOINT Neck1
					{
						OFFSET 0.00288 1.67184 0.11155
						CHANNELS 3 Zrotation Yrotation Xrotation
						JOINT Head
						{
							OFFSET -0.02412 1.66997 -0.22040
							CHANNELS 3 Zrotation Yrotation Xrotation
							End Site
							{
								OFFSET -0.01026 1.69043 -0.08683
							}
						}
					}
				}
				JOINT LeftShoulder
				{
					OFFSET 0 0 0
					CHANNELS 3 Zrotation Yrotation Xrotation
					JOINT LeftArm
					{
						OFFSET 3.97941 0.74048 0.81462
						CHANNELS 3 Zrotation Yrotation Xrotation
						JOINT LeftForeArm
						{
							OFFSET 5.01834 -0.00000 -0.00000
							CHANNELS 3 Zrotation Yrotation Xrotation
							JOINT LeftHand
							{
								OFFSET 3.48690 -0.00000 0.00000
								CHANNELS 3 Zrotation Yrotation Xrotation
								JOINT LeftFingerBase
								{
									OFFSET 0 0 0
									CHANNELS 3 Zrotation Yrotation Xrotation
									JOINT LeftHandIndex1
									{
										OFFSET 0.76799 -0.00000 0.00000
										CHANNELS 3 Zrotation Yrotation Xrotation
										End Site
										{
											OFFSET 0.61917 -0.00000 0.00000
										}
									}
								}
								JOINT LThumb
								{
									OFFSET 0 0 0
									CHANNELS 3 Zrotation Yrotation Xrotation
									End Site
									{
										OFFSET 0.62863 -0.00000 0.62863
									}
								}
							}
						}
					}
				}
				JOINT RightShoulder
				{
					OFFSET 0 0 0
					CHANNELS 3 Zrotation Yrotation Xrotation
					JOINT RightArm
					{
						OFFSET -3.88702 1.02123 0.44091
						CHANNELS 3 Zrotation Yrotation Xrotation
						JOINT RightForeArm
						{
							OFFSET -4.70164 -0.00000 0.00000
							CHANNELS 3 Zrotation Yrotation Xrotation
							JOINT RightHand
							{
								OFFSET -3.49911 -0.00000 0.00000
								CHANNELS 3 Zrotation Yrotation Xrotation
								JOINT RightFingerBase
								{
									OFFSET 0 0 0
									CHANNELS 3 Zrotation Yrotation Xrotation
									JOINT RightHandIndex1
									{
										OFFSET -0.73933 -0.00000 0.00000
										CHANNELS 3 Zrotation Yrotation Xrotation
										End Site
										{
											OFFSET -0.59607 -0.00000 0.00000
										}
									}
								}
								JOINT RThumb
								{
									OFFSET 0 0 0
									CHANNELS 3 Zrotation Yrotation Xrotation
									End Site
									{
										OFFSET -0.60517 -0.00000 0.60517
									}
								}
							}
						}
					}
				}
			}
		}
	}
}
MOTION
Frames: 10
Frame Time: .0083333
-13.4819 17.4683 -0.403 0 0 0 0 0 0 -21 0 0 0 0 0 0 0 0 0 0 0 0 0 0 21 0 0 0 0 0 0 0 0 0 0 0 0 0 0 0 0 0 0 0 0 0 0 -16 0 0 21 0 0 11 0 0 0 -8 0 0 0 0 0 0 0 0 0 0 0 0 0 0 0 0 0 0 0 0 8 0 0 0 0 0 0 0 0 0 0 0 0 0 0 0 0 0
-13.4819 17.4683 -0.4030 89.8057 88.0219 97.8025 0.0000 0.0000 0.0000 -17.5369 -8.6238 -20.6006 2.6474 10.1012 29.3051 0.8857 3.8667 -19.5808 0.1787 2.7229 7.5082 0.0000 0.0000 0.0000 22.5165 8.0078 -6.2351 -0.6809 -5.2758 14.6970 -1.0043 -6.7912 -22.5486 -0.0165 -0.8303 2.2819 0.8482 0.0909 -4.2426 0.1826 0.0677 2.3774 -0.2810 0.0615 4.8383 3.0054 -2.8636 -6.8390 -2.2516 -3.5854 19.5453 -1.4954 -1.5548 6.9881 -0.0000 -0.0000 0.0000 -97.0888 -0.7857 31.3496 19.1287 -29.5783 -5.0942 -0.0000 0.0000 -12.3409 22.3075 43.3723 15.7355 -7.1250 0.0000 -0.0000 -27.1704 74.1100 -19.0347 -0.0000 -0.0000 0.0000 90.5041 -12.4017 23.7263 -24.7810 35.9793 -8.1609 0.0000 0.0000 11.6309 -28.6113 1.0136 -0.5529 7.1250 -0.0000 -0.0000 -1.5911 -28.8237 -0.6271
-13.4266 17.4597 -0.3853 92.5354 87.9915 100.1920 0.0000 0.0000 0.0000 -17.4387 -9.1771 -20.9474 2.9846 10.6700 31.1749 0.8446 3.7320 -19.0988 0.3456 3.7775 10.4515 0.0000 0.0000 0.0000 22.6525 7.7896 -5.6442 -0.6692 -5.2315 14.5701 -1.0217 -6.8479 -22.7381 -0.0172 -0.8467 2.3270 0.7310 0.0688 -3.9561 0.1262 0.0507 2.2754 -0.2754 0.0488 4.5689 3.1460 -2.8945 -6.5230 -2.3464 -3.6079 19.6027 -1.5455 -1.5579 6.9449 -0.0000 0.0000 0.0000 -96.9268 -0.4025 31.5120 19.1283 -29.5778 -5.0940 -0.0000 0.0000 -12.1537 22.0728 43.0138 15.4628 -7.1250 0.0000 -0.0000 -26.6854 73.7291 -18.4705 -0.0000 0.0000 0.0000 90.6584 -12.5231 23.7491 -25.0091 36.2133 -8.2953 0.0000 0.0000 11.4690 -28.5951 0.7796 -0.4249 7.1250 -0.0000 -0.0000 -1.5841 -29.0903 -0.6143
-13.3683 17.4483 -0.3661 90.3573 88.2089 97.6683 0.0000 0.0000 0.0000 -17.0322 -9.6448 -21.3920 3.3698 11.2709 33.1989 0.8100 3.6504 -18.7036 0.5922 4.9269 13.7003 0.0000 0.0000 0.0000 23.0764 7.7696 -5.0920 -0.6751 -5.2538 14.6339 -1.0507 -6.7976 -22.9511 -0.0243 -1.0064 2.7665 0.6885 0.0548 -3.8004 0.2389 0.0318 2.3048 -0.1367 0.0366 4.5106 3.0445 -2.8566 -6.4324 -2.2718 -3.5462 19.7095 -1.4997 -1.5252 6.9688 0.0000 -0.0000 0.0000 -96.9619 -0.2419 31.3786 19.1305 -29.5805 -5.0951 -0.0000 0.0000 -12.0906 21.9514 42.9061 15.3437 -7.1250 0.0000 -0.0000 -26.6099 73.5961 -18.3421 0.0000 -0.0000 0.0000 90.5517 -12.4449 24.1200 -25.2951 36.5041 -8.4648 0.0000 0.0000 11.1717 -28.6577 0.4948 -0.2704 7.1250 -0.0000 -0.0000 -1.6395 -29.4141 -0.6232
-13.3198 17.4411 -0.3588 85.7363 88.1996 92.9319 0.0000 0.0000 0.0000 -16.9035 -10.1976 -22.1996 3.8042 11.8951 35.3620 0.7562 3.5255 -18.0751 0.8919 6.0196 16.8412 0.0000 0.0000 0.0000 23.1139 7.6419 -5.0427 -0.7062 -5.3711 14.9700 -1.1114 -6.3366 -23.1514 -0.0455 -1.3771 3.7871 0.5549 0.0479 -3.7883 0.2716 0.0292 2.3238 -0.0282 0.0308 4.5234 2.8857 -2.8314 -6.4291 -2.2119 -3.5030 19.6764 -1.4504 -1.5121 6.9631 -0.0000 -0.0000 0.0000 -97.0630 -0.2513 31.0624 19.0977 -29.5399 -5.0789 -0.0000 0.0000 -11.9566 21.9163 42.8698 15.3079 -7.1250 0.0000 -0.0000 -26.5775 73.5532 -18.2950 -0.0000 -0.0000 0.0000 90.3823 -12.1368 24.8149 -25.6200 36.8310 -8.6589 0.0000 0.0000 10.6285 -28.9111 0.5525 -0.3052 7.1250 -0.0000 -0.0000 -1.8367 -29.3463 -0.7012
-13.2723 17.4295 -0.3465 81.9666 88.2052 89.0879 0.0000 0.0000 0.0000 -16.6937 -10.6945 -23.1672 4.2787 12.5224 37.6059 0.7126 3.2469 -17.4486 1.2551 7.1023 20.0187 0.0000 0.0000 0.0000 23.2215 7.6732 -4.9479 -0.7307 -5.4617 15.2302 -1.1611 -6.0886 -23.4027 -0.0714 -1.7238 4.7430 0.4110 0.0705 -3.7413 0.2749 0.0678 2.3260 0.0588 0.0455 4.4989 2.8332 -2.8626 -6.4786 -2.1873 -3.5493 19.6219 -1.4375 -1.5384 6.9546 0.0000 0.0000 0.0000 -97.0178 -0.2162 30.9789 19.1262 -29.5751 -5.0930 -0.0000 0.0000 -11.9068 21.8533 42.7575 15.2308 -7.1250 0.0000 -0.0000 -26.4221 73.4372 -18.1198 0.0000 0.0000 0.0000 90.3639 -11.8290 25.3535 -25.9525 37.1617 -8.8589 0.0000 0.0000 10.1811 -29.2383 0.2439 -0.1365 7.1250 -0.0000 -0.0000 -2.1012 -29.6971 -0.7847
-13.2194 17.4137 -0.3326 79.0405 88.2893 86.0831 0.0000 0.0000 0.0000 -16.3872 -11.2084 -24.1376 4.7512 13.0980 39.7365 0.6571 3.0220 -16.7043 2.2402 9.3495 26.8947 0.0000 0.0000 0.0000 23.4646 7.9365 -4.6212 -0.7318 -5.4655 15.2412 -1.1944 -6.0978 -23.6811 -0.1246 -2.2759 6.2689 0.3157 0.0923 -3.6609 0.2931 0.1021 2.2992 0.1333 0.0591 4.4252 2.7997 -2.8987 -6.5999 -2.1522 -3.6060 19.6807 -1.4281 -1.5651 6.9951 0.0000 -0.0000 0.0000 -96.9002 -0.1159 31.0723 19.2193 -29.6902 -5.1390 -0.0000 0.0000 -11.9964 21.9151 42.8936 15.3136 -7.1250 0.0000 -0.0000 -26.6292 73.5726 -18.3427 0.0000 -0.0000 0.0000 90.3603 -11.7685 26.1937 -26.5413 37.7382 -9.2170 0.0000 0.0000 9.5438 -29.8598 -0.2007 0.1152 7.1250 -0.0000 -0.0000 -2.6030 -30.2059 -0.9408
-13.1595 17.3970 -0.3228 72.5598 88.4020 79.4791 0.0000 0.0000 0.0000 -16.0648 -11.6146 -24.9870 5.1825 13.5864 41.6053 0.6759 2.6388 -16.7068 2.1441 9.1600 26.2972 0.0000 0.0000 0.0000 23.7593 7.9879 -4.3345 -0.7541 -5.5464 15.4738 -1.2430 -5.9985 -24.0108 -0.1375 -2.3897 6.5838 0.3022 0.1203 -3.6107 0.3347 0.1389 2.2922 0.1865 0.0763 4.3893 2.7681 -2.8944 -6.6365 -2.1538 -3.5985 19.6719 -1.4234 -1.5649 6.9996 0.0000 0.0000 0.0000 -96.8465 0.0080 30.9748 19.3165 -29.8101 -5.1873 -0.0000 0.0000 -12.0946 22.0134 43.0343 15.4246 -7.1250 0.0000 -0.0000 -26.8043 73.7245 -18.5531 0.0000 0.0000 0.0000 90.3283 -11.5204 27.0771 -26.9799 38.1600 -9.4867 0.0000 0.0000 9.0220 -30.4141 -0.0401 0.0235 7.1250 -0.0000 -0.0000 -3.0351 -30.0193 -1.1109
-13.0956 17.3823 -0.3150 62.9998 88.3647 69.7303 0.0000 0.0000 0.0000 -15.8346 -11.9413 -25.6375 5.5312 13.9581 43.0700 0.7576 1.9300 -17.2496 2.2070 9.2846 26.6897 0.0000 0.0000 0.0000 23.9144 7.9295 -4.0700 -0.7848 -5.6554 15.7878 -1.3026 -5.6832 -24.2902 -0.1438 -2.4438 6.7339 0.1908 0.1546 -3.5377 0.3643 0.1903 2.3239 0.2831 0.0983 4.3802 2.8143 -2.8559 -6.5090 -2.2539 -3.5366 19.4446 -1.4530 -1.5454 6.9020 -0.0000 -0.0000 0.0000 -96.8521 0.1984 30.6130 19.4465 -29.9697 -5.2520 -0.0000 0.0000 -12.1965 21.9791 42.9701 15.3817 -7.1250 0.0000 -0.0000 -26.7106 73.6590 -18.4493 -0.0000 -0.0000 0.0000 90.3478 -11.0052 27.9668 -27.2645 38.4302 -9.6630 0.0000 0.0000 8.7600 -31.0388 0.0696 -0.0419 7.1250 -0.0000 -0.0000 -3.5227 -29.8894 -1.3009
-13.0273 17.3732 -0.3068 52.0475 88.2744 58.6739 0.0000 0.0000 0.0000 -15.5508 -12.2257 -26.2391 5.7952 14.2269 44.1542 0.8170 1.3965 -17.6350 2.1829 9.2370 26.5396 0.0000 0.0000 0.0000 24.0670 7.8065 -3.8914 -0.8100 -5.7434 16.0416 -1.3454 -5.3561 -24.4313 -0.1387 -2.4005 6.6139 0.1051 0.2322 -3.4927 0.3713 0.2982 2.2843 0.3459 0.1491 4.3127 2.8652 -2.8625 -6.3740 -2.3251 -3.5401 19.2719 -1.4796 -1.5526 6.8197 -0.0000 -0.0000 0.0000 -96.8516 0.4934 30.0467 19.5355 -30.0787 -5.2966 -0.0000 0.0000 -12.1747 21.8195 42.8382 15.2281 -7.1250 0.0000 -0.0000 -26.6328 73.4920 -18.3003 -0.0000 -0.0000 0.0000 90.4839 -10.5769 28.8548 -27.6242 38.7680 -9.8875 0.0000 0.0000 8.5890 -31.6931 0.1048 -0.0647 7.1250 -0.0000 -0.0000 -4.0356 -29.8447 -1.4954
